<?xml version="1.0" encoding="UTF-8" standalone="no"?>
<svg
   xmlns:dc="http://purl.org/dc/elements/1.1/"
   xmlns:cc="http://creativecommons.org/ns#"
   xmlns:rdf="http://www.w3.org/1999/02/22-rdf-syntax-ns#"
   xmlns:svg="http://www.w3.org/2000/svg"
   xmlns="http://www.w3.org/2000/svg"
   xmlns:xlink="http://www.w3.org/1999/xlink"
   xmlns:sodipodi="http://sodipodi.sourceforge.net/DTD/sodipodi-0.dtd"
   xmlns:inkscape="http://www.inkscape.org/namespaces/inkscape"
   width="1800"
   height="500"
   viewBox="0 0 476.24999 132.29167"
   version="1.1"
   id="svg1809"
   inkscape:version="1.0.1 (3bc2e813f5, 2020-09-07)"
   sodipodi:docname="Titanfall 2 Logo.svg">
  <defs
     id="defs1803">
    <linearGradient
       inkscape:collect="always"
       xlink:href="#linearGradient1505"
       id="linearGradient1507-4-4"
       x1="-310.94199"
       y1="1099.6776"
       x2="-310.94199"
       y2="1172.2679"
       gradientUnits="userSpaceOnUse"
       gradientTransform="translate(710.01747,-1085.1851)" />
    <linearGradient
       inkscape:collect="always"
       id="linearGradient1505">
      <stop
         style="stop-color:#79a8b5;stop-opacity:1"
         offset="0"
         id="stop1501" />
      <stop
         style="stop-color:#dff7fc;stop-opacity:1"
         offset="1"
         id="stop1503" />
    </linearGradient>
  </defs>
  <sodipodi:namedview
     id="base"
     pagecolor="#ffffff"
     bordercolor="#666666"
     borderopacity="1.0"
     inkscape:pageopacity="0.0"
     inkscape:pageshadow="2"
     inkscape:zoom="0.5"
     inkscape:cx="1181.0264"
     inkscape:cy="474.73895"
     inkscape:document-units="mm"
     inkscape:current-layer="g2426"
     inkscape:document-rotation="0"
     showgrid="false"
     inkscape:snap-bbox="true"
     inkscape:bbox-paths="true"
     inkscape:snap-bbox-midpoints="true"
     inkscape:bbox-nodes="true"
     inkscape:snap-bbox-edge-midpoints="true"
     inkscape:snap-center="true"
     inkscape:snap-object-midpoints="true"
     inkscape:snap-page="true"
     units="px"
     borderlayer="true"
     inkscape:showpageshadow="false"
     inkscape:object-paths="true"
     inkscape:snap-intersection-paths="true"
     inkscape:snap-smooth-nodes="true"
     inkscape:snap-midpoints="true"
     inkscape:window-width="2560"
     inkscape:window-height="1387"
     inkscape:window-x="-8"
     inkscape:window-y="22"
     inkscape:window-maximized="1" />
  <metadata
     id="metadata1806">
    <rdf:RDF>
      <cc:Work
         rdf:about="">
        <dc:format>image/svg+xml</dc:format>
        <dc:type
           rdf:resource="http://purl.org/dc/dcmitype/StillImage" />
        <dc:title></dc:title>
      </cc:Work>
    </rdf:RDF>
  </metadata>
  <g
     inkscape:label="Ebene 1"
     inkscape:groupmode="layer"
     id="layer1">
    <g
       id="g2426"
       transform="translate(-2.1166683,15.345817)">
      <path
         id="rect968-0-8-8-5"
         style="fill:#ffffff;stroke-width:36.1405;stroke-linecap:square;paint-order:markers stroke fill"
         d="m 42.582467,32.371967 v 7.8574 h 14.499301 v 28.9988 h 7.8579 v -28.9988 H 79.43907 v -7.8574 z"
         sodipodi:nodetypes="ccccccccc" />
      <path
         id="rect968-6-0-4-0-6"
         style="fill:#ffffff;stroke-width:36.1405;stroke-linecap:square;paint-order:markers stroke fill"
         d="m 89.625669,32.371767 h 7.857708 v 36.8565 h -7.857708 z" />
      <path
         id="rect968-9-4-5-1-1"
         style="fill:#ffffff;stroke-width:36.1405;stroke-linecap:square;paint-order:markers stroke fill"
         d="m 106.56668,32.371967 v 7.8574 h 14.4993 v 28.9988 h 7.858 v -28.9988 h 14.2565 l 3.5408,-7.8574 z"
         sodipodi:nodetypes="ccccccccc" />
      <path
         id="rect968-9-1-13-0-5-0"
         style="fill:#ffffff;stroke-width:36.1405;stroke-linecap:square;paint-order:markers stroke fill"
         inkscape:transform-center-x="4.4310802"
         inkscape:transform-center-y="18.313951"
         d="m 157.92678,32.371967 -17.6878,36.8562 h 8.7158 l 13.3299,-27.7756 9.5591,19.9182 h -11.8866 l 3.5409,7.8574 h 20.8318 l -17.6873,-36.8562 z"
         sodipodi:nodetypes="cccccccccc" />
      <path
         id="rect968-6-8-2-6-0-2"
         style="fill:#ffffff;stroke-width:36.1405;stroke-linecap:square;paint-order:markers stroke fill"
         d="m 188.85408,32.371967 v 36.8562 h 7.858 v -23.2601 l 23.3582,23.2601 h 11.1363 v -36.8562 h -7.8574 v 29.0318 l -29.1548,-29.0318 z"
         sodipodi:nodetypes="ccccccccccc" />
      <path
         id="rect968-5-2-4-2-9"
         style="fill:#ffffff;stroke-width:36.1405;stroke-linecap:square;paint-order:markers stroke fill"
         d="m 240.24168,32.371967 v 36.8562 h 7.8579 v -12.701 h 12.192 v -7.8575 h -12.192 v -8.4403 h 22.93509 l 3.54031,-7.8574 z"
         sodipodi:nodetypes="ccccccccccc" />
      <path
         id="rect968-9-1-11-4-3-7-4"
         style="fill:#ffffff;stroke-width:36.1405;stroke-linecap:square;paint-order:markers stroke fill"
         inkscape:transform-center-x="-4.4310802"
         inkscape:transform-center-y="18.313951"
         d="m 284.39766,32.371967 -17.68779,36.8562 h 20.83231 l 3.54079,-7.8574 h -11.88659 l 9.55918,-19.9182 13.32992,27.7756 h 8.71519 l -17.68729,-36.8562 z"
         sodipodi:nodetypes="cccccccccc" />
      <path
         id="rect968-6-4-8-1-7-8"
         style="fill:#ffffff;stroke-width:36.1405;stroke-linecap:square;paint-order:markers stroke fill"
         d="m 317.43547,32.371967 v 36.8562 h 27.64891 v -7.8574 h -19.791 v -28.9988 z"
         sodipodi:nodetypes="ccccccc" />
      <path
         id="rect968-6-4-56-6-9-9-9"
         style="fill:#ffffff;stroke-width:36.1405;stroke-linecap:square;paint-order:markers stroke fill"
         d="m 353.41878,32.371967 v 36.8562 h 27.6489 v -7.8574 h -19.79101 v -28.9988 z"
         sodipodi:nodetypes="ccccccc" />
      <path
         id="path1269-1-5-6-1"
         style="fill:#ffffff;stroke:none;stroke-width:0.264583px;stroke-linecap:butt;stroke-linejoin:miter;stroke-opacity:1"
         d="m 428.26588,31.071867 c -5.70621,0 -14.4994,2.7015 -14.4994,12.161 h 7.5773 c 0.7938,-3.923 4.1412,-4.9579 6.4203,-4.9579 6.19349,0 6.8481,5.5241 4.52429,7.2962 l -18.52189,14.1253 v 9.5317 l 23.2927,-17.7633 c 1.32479,-1.0103 4.02249,-3.3607 4.02249,-8.9803 0,-3.0065 -2.7908,-11.4127 -12.81579,-11.4127 z m 1.57039,30.3454 -10.30529,7.8579 h 21.55069 v -7.8579 z" />
      <g
         aria-label="®"
         id="text1467-1-8"
         style="font-style:normal;font-variant:normal;font-weight:bold;font-stretch:normal;font-size:308.054px;line-height:1.25;font-family:sans-serif;-inkscape-font-specification:'sans-serif Bold';letter-spacing:0px;word-spacing:0px;writing-mode:lr-tb;fill:#ffffff;stroke-width:6.41511"
         transform="matrix(0.02562773,0,0,0.02562773,364.38581,-2.7883762)">
        <path
           d="m 650.93331,1507.6104 q 0,53.8493 -38.20591,92.0552 -38.0555,38.0555 -91.90478,38.0555 -53.84928,0 -92.0552,-38.0555 -38.05549,-38.2059 -38.05549,-92.0552 0,-53.8493 38.05549,-91.9048 38.20592,-38.2059 92.0552,-38.2059 53.84928,0 91.90478,38.2059 38.20591,38.0555 38.20591,91.9048 z m -28.57923,0 q 0,-41.9663 -29.78256,-72.0497 -29.63215,-30.2338 -71.59849,-30.2338 -41.96633,0 -71.7489,30.2338 -29.63214,30.0834 -29.63214,72.0497 0,41.9664 29.63214,72.2002 29.78257,30.0834 71.7489,30.0834 41.96634,0 71.59849,-30.0834 29.78256,-30.2338 29.78256,-72.2002 z m -28.42881,61.671 h -40.763 l -39.25883,-47.5318 h -12.93586 v 47.5318 h -31.88841 v -129.509 h 49.18636 q 13.68794,0 21.96088,1.0529 8.27293,1.0529 16.39545,5.415 8.8746,4.9638 12.93586,12.0333 4.21168,7.0696 4.21168,17.5988 0,14.1392 -7.9721,23.3147 -7.9721,9.1754 -20.75755,14.2896 z m -55.65428,-91.0023 q 0,-4.0613 -1.80501,-7.3704 -1.65458,-3.4596 -5.71584,-5.5655 -3.76043,-2.1058 -8.72419,-2.557 -4.81334,-0.6017 -10.98044,-0.6017 h -10.07793 v 36.5513 h 7.67126 q 7.9721,0 13.68795,-1.0529 5.71584,-1.2033 9.17543,-3.9108 3.45959,-2.5571 5.11418,-6.3176 1.65459,-3.7604 1.65459,-9.1754 z"
           style="font-style:normal;font-variant:normal;font-weight:bold;font-stretch:normal;font-family:sans-serif;-inkscape-font-specification:'sans-serif Bold';fill:#ffffff;stroke-width:6.41511"
           id="path1469-7-7" />
      </g>
      <path
         id="rect968-6-4-56-8-1-4-7-5-0"
         style="fill:url(#linearGradient1507-4-4);fill-opacity:1;stroke-width:36.1405;stroke-linecap:square;paint-order:markers stroke fill"
         d="m 394.58657,17.697767 4.48889,-3.4234 v 69.6032 l -4.48889,3.4234 z"
         sodipodi:nodetypes="ccccc" />
    </g>
  </g>
</svg>
